{"title":"Nick.Of.Time.DIVX.La.Vela.avi","uid":5000375,"size":1133889401,"categoryP":"video","categoryS":"movies","magnet":"?xt=urn:btih:ccc3a1ec80293aa4945223d0b5059f602ab36d17&amp;dn=Nick.Of.Time.DIVX.La.Vela.avi&amp;tr=udp%3A%2F%2Ftracker.openbittorrent.com%3A80&amp;tr=udp%3A%2F%2Fopen.demonii.com%3A1337&amp;tr=udp%3A%2F%2Ftracker.coppersurfer.tk%3A6969&amp;tr=udp%3A%2F%2Fexodus.desync.com%3A6969","seeders":0,"leechers":1,"uploader":"headdock","files":5,"time":1247446185,"description":"Plot:\n\n\nGene Watson is a public accountant who arrives on a train at Union Station in Los Angeles, accompanied by his 6-year-old daughter Lynn. Because of his ordinary looks, he is approached by a pair of sinister people named Smith and Jones. Pretending to be cops, Smith and Jones kidnap Lynn and confront Gene with a simple choice -- kill California governor Eleanor Grant in 90 minutes or less, or Lynn will die. Watson is given a gun, six bullets, and a name tag, and he is told to go to the Westin Bonaventure Hotel and kill Eleanor, who is giving an afternoon speech. While Jones is watching Lynn in a van, Smith watches Watson in order to prevent Watson from alerting the authorities. Watson must quickly find some way to get himself and Lynn out of this seemingly impossible situation.\n\n\n\n12:25 13-7-2009\n\nGeneral\n\nComplete name                    : Nick.Of.Time.DIVX.La.Vela.avi\n\nImdb                               :http://www.imdb.com/title/tt0113972/\nLanguage                         : English\nSubtitles                        : N/A\nFormat                           : AVI\nFormat/Info                      : Audio Video Interleave\nFormat profile                   : OpenDML\nFile size                        : 1.06 GiB\nDuration                         : 3h 47mn\nOverall bit rate                 : 665 Kbps\nWriting application              : Lavf51.12.1\n\nVideo\nFormat                           : MPEG-4 Visual\nFormat profile                   : Simple@L1\nFormat settings, BVOP            : No\nFormat settings, QPel            : No\nFormat settings, GMC             : No warppoints\nFormat settings, Matrix          : Default\nCodec ID                         : DX50\nCodec ID/Hint                    : DivX 5\nDuration                         : 3h 47mn\nBit rate                         : 563 Kbps\nWidth                            : 720 pixels\nHeight                           : 576 pixels\nDisplay aspect ratio             : 5/4\nFrame rate                       : 25.000 fps\nStandard                         : PAL\nResolution                       : 24 bits\nColorimetry                      : 4:2:0\nScan type                        : Progressive\nBits/(Pixel*Frame)               : 0.054\nStream size                      : 915 MiB (85%)\nWriting library                  : Lavc51.40.4\n\nAudio\nFormat                           : MPEG Audio\nFormat version                   : Version 1\nFormat profile                   : Layer 3\nCodec ID                         : 55\nCodec ID/Hint                    : MP3\nDuration                         : 1h 25mn\nBit rate mode                    : Constant\nBit rate                         : 256 Kbps\nChannel(s)                       : 2 channels\nSampling rate                    : 48.0 KHz\nResolution                       : 16 bits\nStream size                      : 156 MiB (14%)\nAlignment                        : Aligned on interleaves\nInterleave, duration             : 24 ms (0.60 video frame)\nInterleave, preload duration     : 24 ms\n\n","torrent":{"xt":"urn:btih:ccc3a1ec80293aa4945223d0b5059f602ab36d17","amp;dn":"Nick.Of.Time.DIVX.La.Vela.avi","amp;tr":["udp%3A%2F%2Ftracker.openbittorrent.com%3A80","udp%3A%2F%2Fopen.demonii.com%3A1337","udp%3A%2F%2Ftracker.coppersurfer.tk%3A6969","udp%3A%2F%2Fexodus.desync.com%3A6969"],"infoHash":"ccc3a1ec80293aa4945223d0b5059f602ab36d17","infoHashBuffer":{"type":"Buffer","data":[204,195,161,236,128,41,58,164,148,82,35,208,181,5,159,96,42,179,109,23]},"announce":[],"urlList":[]}}